<svg height="512pt" viewBox="0 -66 512 512" width="512pt" xmlns="http://www.w3.org/2000/svg"><g fill-rule="evenodd"><path d="m466.039062 181.011719-70.019531-.011719c-8.285156 0-15-6.714844-15-15s6.714844-15 15-15h51.640625l-11.53125-19.351562c-15.734375-26.40625-39.804687-44.582032-68.375-51.960938-4.644531-1.199219-9.148437-.273438-12.9375 2.664062-3.792968 2.9375-5.816406 7.0625-5.816406 11.859376v223.789062c0 8.261719 6.738281 15 15 15h10.1875c5.375 26.476562 28.769531 46 56.347656 46s50.976563-19.523438 56.351563-46h10.113281c8.285156 0 15-6.714844 15-15v-90c0-25.710938-20.289062-46.699219-45.960938-46.988281zm-16.058593 159.933593c-17.273438 17.277344-46.945313 4.988282-46.945313-19.445312 0-24.429688 29.671875-36.71875 46.945313-19.445312 10.738281 10.734374 10.738281 28.15625 0 38.890624zm0 0"/><path d="m304.019531 0h-289.019531c-8.285156 0-15 6.714844-15 15v303.195312c0 8.285157 6.714844 15 15 15h34.191406c5.453125 26.382813 28.800782 45.804688 56.308594 45.804688s50.855469-19.425781 56.308594-45.804688h142.210937c8.285157 0 15-6.714843 15-15v-303.195312c0-8.285156-6.714843-15-15-15zm-240.863281 170.53125v31.527344c0 8.285156-6.714844 15-15 15s-15-6.714844-15-15v-93.058594c0-8.285156 6.714844-15 15-15h15.285156c8.285156 0 15 6.714844 15 15 0 8.328125-6.636718 15-15.285156 15v16.527344c8.652344 0 15.285156 6.671875 15.285156 15 0 8.332031-6.632812 15.003906-15.285156 15.003906zm61.789062 170.414062c-17.273437 17.277344-46.945312 4.988282-46.945312-19.445312s29.671875-36.722656 46.945312-19.445312c10.738282 10.734374 10.738282 28.15625 0 38.890624zm31.613282-149.492187c5.855468 5.859375 5.855468 15.355469 0 21.210937-5.859375 5.859376-15.355469 5.859376-21.210938 0l-16.390625-16.390624v5.785156c0 8.285156-6.71875 15-15 15-8.285156 0-15-6.714844-15-15v-93.058594c0-8.285156 6.714844-15 15-15l19 .058594c20.949219 0 38 17.050781 38 38 0 11.125-3.722656 20.433594-11.144531 27.855468-4.261719 4.261719-9.527344 7.519532-15.410156 9.382813zm49.074218 25.605469h-15.5c-8.285156 0-15-6.714844-15-15v-93.058594c0-8.285156 6.714844-15 15-15h15.28125c8.285157 0 15 6.714844 15 15 0 8.328125-6.632812 15-15.28125 15v16.527344c8.648438 0 15.285157 6.671875 15.285157 15 0 8.332031-6.636719 15-15.285157 15v16.53125c8.898438 0 15.5 6.613281 15.5 15 0 8.285156-6.714843 15-15 15zm65.386719 0h-15.503906c-8.28125 0-15-6.714844-15-15v-93.058594c0-8.285156 6.71875-15 15-15h15.285156c8.285157 0 15 6.714844 15 15 0 8.328125-6.636719 15-15.285156 15v16.527344c8.652344 0 15.289063 6.671875 15.289063 15 0 8.332031-6.636719 15-15.289063 15v16.53125c8.902344 0 15.503906 6.613281 15.503906 15 0 8.285156-6.714843 15-15 15zm0 0"/><path d="m122.957031 124.058594h-4v17c3.800781 0 6.816407.472656 9.644531-2.355469 4.71875-4.722656 2.238282-14.644531-5.644531-14.644531zm0 0"/></g></svg>